<svg width="461" height="85" viewBox="0 0 461 85" fill="none" xmlns="http://www.w3.org/2000/svg">
<path d="M65.6228 42.2459C65.6384 47.675 64.5808 53.0536 62.5108 58.0726C60.4407 63.0916 57.3991 67.652 53.5608 71.4916C49.7224 75.3312 45.163 78.3743 40.1446 80.4459C35.1263 82.5175 29.748 83.5769 24.3189 83.563H0.599854V0.941908H24.3189C29.7442 0.937591 35.1171 2.00301 40.1303 4.0772C45.1435 6.15139 49.6985 9.19365 53.5348 13.0299C57.3711 16.8662 60.4134 21.4212 62.4876 26.4344C64.5617 31.4476 65.6272 36.8205 65.6228 42.2459Z" fill="black"/>
<path d="M72.702 42.0096C72.702 18.9962 91.4685 0 114.951 0C137.965 0 156.728 18.9995 156.728 42.0096C156.728 65.4923 137.965 84.3736 114.951 84.3736C109.39 84.3858 103.881 83.2976 98.7422 81.1715C93.6033 79.0454 88.9358 75.9235 85.0087 71.9857C81.0816 68.0479 77.9724 63.372 75.8602 58.2273C73.7481 53.0826 72.6748 47.5709 72.702 42.0096Z" fill="black"/>
<path d="M235.791 36.2267C235.801 40.8843 234.893 45.4981 233.119 49.8045C231.345 54.1109 228.739 58.0254 225.451 61.3242C222.163 64.6231 218.258 67.2417 213.957 69.0302C209.657 70.8187 205.046 71.7422 200.388 71.7478V83.563H164.985V0.941925H200.388C219.861 0.941925 235.791 16.8728 235.791 36.2267Z" fill="black"/>
<path d="M345.252 49.5615V0.941925H416.058V49.5615C416.058 68.9253 400.127 84.6099 380.655 84.6099C361.183 84.6099 345.252 68.9154 345.252 49.5615Z" fill="black"/>
<path d="M425.497 0.941925H460.9V83.563H425.497V0.941925Z" fill="black"/>
<path d="M321.921 32.7445H254.912C249.378 32.7445 244.892 37.2306 244.892 42.7645C244.892 48.2983 249.378 52.7844 254.912 52.7844H321.921C327.455 52.7844 331.941 48.2983 331.941 42.7645C331.941 37.2306 327.455 32.7445 321.921 32.7445Z" fill="black"/>
<path d="M321.921 64.4749H254.912C249.378 64.4749 244.892 68.961 244.892 74.4948C244.892 80.0287 249.378 84.5148 254.912 84.5148H321.921C327.455 84.5148 331.941 80.0287 331.941 74.4948C331.941 68.961 327.455 64.4749 321.921 64.4749Z" fill="black"/>
<path d="M321.921 1.01083H254.912C249.378 1.01083 244.892 5.49693 244.892 11.0308C244.892 16.5647 249.378 21.0507 254.912 21.0507H321.921C327.455 21.0507 331.941 16.5647 331.941 11.0308C331.941 5.49693 327.455 1.01083 321.921 1.01083Z" fill="black"/>
<path d="M399.087 30.8836L365.969 0.433197L365.946 45.4196L375.995 35.8066L381.899 49.2595L391.109 45.2194L385.204 31.7664L399.087 30.8836Z" fill="#FDF100"/>
</svg>
