<svg width="13" height="10" viewBox="0 0 13 10" fill="none" xmlns="http://www.w3.org/2000/svg">
<path fill-rule="evenodd" clip-rule="evenodd" d="M1.74677 4.9045C2.04639 4.45374 2.64852 3.63357 3.46483 2.93152C4.28613 2.22518 5.26773 1.68627 6.33714 1.68627C7.40656 1.68627 8.38819 2.22518 9.20944 2.93152C10.0258 3.63357 10.6279 4.45374 10.9275 4.9045C10.9485 4.93598 10.9485 4.97229 10.9275 5.00377C10.6279 5.45452 10.0258 6.2747 9.20944 6.97672C8.38819 7.68309 7.40656 8.22199 6.33714 8.22199C5.26773 8.22199 4.28613 7.68309 3.46483 6.97672C2.64852 6.2747 2.04639 5.45452 1.74677 5.00377C1.72584 4.97229 1.72584 4.93598 1.74677 4.9045ZM6.33714 0.596985C4.8983 0.596985 3.67143 1.31713 2.75456 2.10565C1.8327 2.89847 1.16699 3.80898 0.839605 4.3015C0.575844 4.6983 0.575845 5.20996 0.839605 5.60677C1.16699 6.09929 1.8327 7.00976 2.75456 7.80262C3.67143 8.59112 4.8983 9.31128 6.33714 9.31128C7.77599 9.31128 9.00284 8.59112 9.91973 7.80262C10.8416 7.00976 11.5073 6.09929 11.8347 5.60677C12.0984 5.20996 12.0984 4.6983 11.8347 4.3015C11.5073 3.80898 10.8416 2.89847 9.91973 2.10565C9.00284 1.31713 7.77599 0.596985 6.33714 0.596985ZM6.33714 6.40651C7.13927 6.40651 7.78952 5.75626 7.78952 4.95413C7.78952 4.152 7.13927 3.50175 6.33714 3.50175C5.53501 3.50175 4.88476 4.152 4.88476 4.95413C4.88476 5.75626 5.53501 6.40651 6.33714 6.40651Z" fill="black"/>
</svg>
