<svg width="82" height="85" viewBox="0 0 82 85" fill="none" xmlns="http://www.w3.org/2000/svg">
<path d="M40.7412 7.41193e-05C44.9981 7.41193e-05 48.1186 6.83114 51.9593 8.07273C55.94 9.35982 62.4899 5.70377 65.8036 8.1043C69.1508 10.529 67.6694 17.8754 70.1043 21.2065C72.5158 24.505 80.0061 25.3593 81.2991 29.3218C82.5454 33.145 77.031 38.2015 77.031 42.4388C77.031 46.6762 82.5454 51.7327 81.2981 55.5559C80.0061 59.5184 72.5158 60.3727 70.1033 63.6712C67.6675 67.0023 69.1499 74.3506 65.8027 76.7734C62.489 79.1739 55.9391 75.5179 51.9584 76.805C48.1186 78.0466 44.9981 84.8776 40.7412 84.8776C36.4844 84.8776 33.3639 78.0466 29.5231 76.805C25.5424 75.5179 18.9925 79.1739 15.6789 76.7734C12.3316 74.3487 13.8131 67.0023 11.3782 63.6712C8.96665 60.3727 1.4764 59.5184 0.183399 55.5559C-1.06296 51.7327 4.45142 46.6762 4.45142 42.4388C4.45142 38.2015 -1.06295 33.145 0.184332 29.3218C1.4764 25.3593 8.96665 24.505 11.3791 21.2065C13.8149 17.8754 12.3326 10.5271 15.6798 8.1043C18.9935 5.70377 25.5434 9.35982 29.524 8.07273C33.3639 6.83114 36.4844 7.41193e-05 40.7412 7.41193e-05Z" fill="black"/>
<path d="M40.038 22.4205L28.5551 44.2386C28.4292 44.4782 28.3667 44.7465 28.3736 45.0176C28.3804 45.2888 28.4565 45.5535 28.5944 45.7862C28.7323 46.0189 28.9274 46.2116 29.1607 46.3458C29.394 46.4799 29.6576 46.5509 29.9261 46.5519H35.962C36.1666 46.5518 36.3693 46.5924 36.5584 46.6714C36.7474 46.7505 36.9193 46.8664 37.064 47.0125C37.2087 47.1587 37.3235 47.3322 37.4019 47.5232C37.4802 47.7142 37.5205 47.9189 37.5205 48.1256V61.2328C37.5205 62.8535 39.6523 63.4168 40.4368 62.0024L52.4254 40.3933C52.558 40.1538 52.6264 39.8835 52.6237 39.6091C52.621 39.3347 52.5475 39.0658 52.4103 38.829C52.2731 38.5922 52.077 38.3958 51.8415 38.2591C51.606 38.1225 51.3392 38.0503 51.0677 38.0499L44.5242 38.0428C44.1115 38.0421 43.7158 37.876 43.4242 37.581C43.1325 37.286 42.9685 36.8861 42.9683 36.4691V23.16C42.9709 21.5198 40.7997 20.9734 40.038 22.4205Z" fill="white"/>
</svg>
